<?xml version="1.0" encoding="utf-8"?>
<!-- Generator: Adobe Illustrator 19.1.0, SVG Export Plug-In . SVG Version: 6.00 Build 0)  -->
<svg version="1.1" id="Layer_1" xmlns="http://www.w3.org/2000/svg" xmlns:xlink="http://www.w3.org/1999/xlink" x="0px" y="0px"
	 viewBox="0 0 64 64" enable-background="new 0 0 64 64" xml:space="preserve">
<g id="Bust">
	<path d="M54.9169235,37.1247482c-0.0205002-0.2118988-0.1084023-0.4115982-0.2505035-0.5702972
		c-3.5253983-3.9286995-8.8290977-7.2862015-14.9379997-9.4556007c-0.4325829-0.1513996-0.7958984-0.4561005-1.0248985-0.8521004
		c-0.0126839-0.0760994-0.0346832-0.1518002-0.0663986-0.2259998c-0.2089996-0.4902992-0.0508003-1.0694008,0.4057999-1.3999004
		c3.2474976-2.5341988,5.1865005-6.6703987,5.1865005-11.0639992c0-7.4614005-5.4863014-13.5317001-12.2295017-13.5317001
		S19.7709217,6.0954499,19.7709217,13.5568504c0,4.4785004,1.9922009,8.6366997,5.3501015,11.1387005
		c0.4102001,0.2894993,0.5741997,0.8275986,0.4038143,1.3002987c-0.0098152,0.019001-0.0185146,0.0384998-0.0273151,0.0580997
		c-0.1968002,0.4590015-0.5776844,0.8149014-1.0468998,0.9785004c-6.1875,2.1714001-11.5562,5.5532017-15.1166992,9.5220013
		c-0.142086,0.158699-0.2300005,0.3583984-0.2505007,0.5702972c-0.6187,6.3252029,2.3207998,13.1025009,7.8671999,18.1328011
		c0.6420994,0.5765991,1.4228001,0.9971008,2.2646008,1.2178001c4.0629997,1.0376015,8.4228992,1.5560989,12.7841988,1.5560989
		c4.3779011,0,8.7572994-0.5228996,12.8369007-1.5682983c0.8003006-0.2120018,1.5522995-0.6176987,2.1791992-1.1767998
		C52.5819206,50.2575493,55.5355225,43.4679489,54.9169235,37.1247482z M45.6801224,53.7990494
		c-0.3886986,0.3466988-0.857399,0.5996017-1.347702,0.7294998c-7.8212967,2.0054016-16.7958984,2.0093002-24.6161976,0.0116997
		c-0.5293007-0.1386986-1.023901-0.4053001-1.4267006-0.7665977c-4.9794998-4.5166016-7.6704998-10.5219994-7.2451992-16.1289024
		c3.3403997-3.6176987,8.3213005-6.7094994,14.0655136-8.7255993c0.9632854-0.3349991,1.7538853-1.0546989,2.1830864-1.9828987
		c0.0170994-0.0307999,0.0326996-0.0630016,0.0467987-0.0957012c0.575201-1.3486004,0.1265011-2.9379997-1.0458851-3.7631989
		c-2.8325138-2.1113014-4.5239143-5.6704006-4.5239143-9.5205002c0-6.3594003,4.5893993-11.5327005,10.2299995-11.5327005
		c5.6410999,0,10.2305012,5.1733003,10.2305012,11.5327005c0,3.7826996-1.6514015,7.3295994-4.3871994,9.4652996
		c-1.1060028,0.7984009-1.5567017,2.1875-1.1597023,3.4692993c0.0063171,0.1152,0.0331993,0.2290001,0.0786018,0.3348999
		c0.4320984,1.0098,1.2719994,1.7968998,2.3008003,2.1578007c5.6674995,2.0121994,10.5863991,5.0810013,13.8925972,8.6605988
		C53.381321,43.2677498,50.6771202,49.2843513,45.6801224,53.7990494z"/>
	<path d="M35.9999237,62.0744514h-8.0000019c-0.5248985,0-0.9501991,0.4252968-0.9501991,0.9501991
		c0,0.5248985,0.4253006,0.9501991,0.9501991,0.9501991h8.0000019c0.5249138,0,0.9501991-0.4253006,0.9501991-0.9501991
		C36.9501228,62.4997482,36.5248375,62.0744514,35.9999237,62.0744514z"/>
</g>
<g>
</g>
<g>
</g>
<g>
</g>
<g>
</g>
<g>
</g>
<g>
</g>
<g>
</g>
<g>
</g>
<g>
</g>
<g>
</g>
<g>
</g>
<g>
</g>
<g>
</g>
<g>
</g>
<g>
</g>
</svg>
